<svg id="visual" viewBox="0 0 540 960" width="540" height="960" xmlns="http://www.w3.org/2000/svg" xmlns:xlink="http://www.w3.org/1999/xlink" version="1.1"><rect x="0" y="0" width="540" height="960" fill="#001220"></rect><defs><linearGradient id="grad1_0" x1="0%" y1="0%" x2="100%" y2="100%"><stop offset="30%" stop-color="#001220" stop-opacity="1"></stop><stop offset="70%" stop-color="#001220" stop-opacity="1"></stop></linearGradient></defs><defs><linearGradient id="grad2_0" x1="0%" y1="0%" x2="100%" y2="100%"><stop offset="30%" stop-color="#001220" stop-opacity="1"></stop><stop offset="70%" stop-color="#001220" stop-opacity="1"></stop></linearGradient></defs><g transform="translate(540, 0)"><path d="M0 405C-60.8 406.7 -121.6 408.4 -155 374.2C-188.3 340 -194.2 269.9 -231.9 231.9C-269.6 193.9 -339.1 187.9 -373.2 154.6C-407.4 121.3 -406.2 60.6 -405 0L0 0Z" fill="#3A1078"></path></g><g transform="translate(0, 960)"><path d="M0 -405C58.5 -405.8 116.9 -406.5 155 -374.2C193 -341.8 210.6 -276.3 231.2 -231.2C251.8 -186.1 275.4 -161.4 304.9 -126.3C334.3 -91.1 369.7 -45.6 405 0L0 0Z" fill="#3A1078"></path></g></svg>