<svg id="visual" viewBox="0 0 600 900" width="600" height="900" xmlns="http://www.w3.org/2000/svg" xmlns:xlink="http://www.w3.org/1999/xlink" version="1.1"><rect x="0" y="0" width="600" height="900" fill="#001220"></rect><defs><linearGradient id="grad1_0" x1="0%" y1="0%" x2="100%" y2="100%"><stop offset="30%" stop-color="#fbae3c" stop-opacity="1"></stop><stop offset="70%" stop-color="#fbae3c" stop-opacity="1"></stop></linearGradient></defs><defs><linearGradient id="grad1_1" x1="0%" y1="0%" x2="100%" y2="100%"><stop offset="30%" stop-color="#fbae3c" stop-opacity="1"></stop><stop offset="70%" stop-color="#cc5867" stop-opacity="1"></stop></linearGradient></defs><defs><linearGradient id="grad1_2" x1="0%" y1="0%" x2="100%" y2="100%"><stop offset="30%" stop-color="#593762" stop-opacity="1"></stop><stop offset="70%" stop-color="#cc5867" stop-opacity="1"></stop></linearGradient></defs><defs><linearGradient id="grad1_3" x1="0%" y1="0%" x2="100%" y2="100%"><stop offset="30%" stop-color="#593762" stop-opacity="1"></stop><stop offset="70%" stop-color="#001220" stop-opacity="1"></stop></linearGradient></defs><defs><linearGradient id="grad2_0" x1="0%" y1="0%" x2="100%" y2="100%"><stop offset="30%" stop-color="#fbae3c" stop-opacity="1"></stop><stop offset="70%" stop-color="#fbae3c" stop-opacity="1"></stop></linearGradient></defs><defs><linearGradient id="grad2_1" x1="0%" y1="0%" x2="100%" y2="100%"><stop offset="30%" stop-color="#cc5867" stop-opacity="1"></stop><stop offset="70%" stop-color="#fbae3c" stop-opacity="1"></stop></linearGradient></defs><defs><linearGradient id="grad2_2" x1="0%" y1="0%" x2="100%" y2="100%"><stop offset="30%" stop-color="#cc5867" stop-opacity="1"></stop><stop offset="70%" stop-color="#593762" stop-opacity="1"></stop></linearGradient></defs><defs><linearGradient id="grad2_3" x1="0%" y1="0%" x2="100%" y2="100%"><stop offset="30%" stop-color="#001220" stop-opacity="1"></stop><stop offset="70%" stop-color="#593762" stop-opacity="1"></stop></linearGradient></defs><g transform="translate(600, 0)"><path d="M0 405.6C-54.7 401.3 -109.5 397 -155.2 374.7C-201 352.5 -237.7 312.5 -273.7 273.7C-309.6 234.8 -344.9 197.3 -366.8 151.9C-388.7 106.5 -397.1 53.3 -405.6 0L0 0Z" fill="#232745"></path><path d="M0 304.2C-41.1 301 -82.1 297.7 -116.4 281.1C-150.7 264.4 -178.2 234.3 -205.2 205.2C-232.2 176.1 -258.7 148 -275.1 113.9C-291.5 79.9 -297.9 39.9 -304.2 0L0 0Z" fill="#96446e"></path><path d="M0 202.8C-27.4 200.6 -54.7 198.5 -77.6 187.4C-100.5 176.3 -118.8 156.2 -136.8 136.8C-154.8 117.4 -172.5 98.7 -183.4 76C-194.3 53.3 -198.6 26.6 -202.8 0L0 0Z" fill="#f17c53"></path><path d="M0 101.4C-13.7 100.3 -27.4 99.2 -38.8 93.7C-50.2 88.1 -59.4 78.1 -68.4 68.4C-77.4 58.7 -86.2 49.3 -91.7 38C-97.2 26.6 -99.3 13.3 -101.4 0L0 0Z" fill="#fbae3c"></path></g><g transform="translate(0, 900)"><path d="M0 -405.6C48.4 -384.5 96.9 -363.3 141.6 -341.8C186.3 -320.3 227.3 -298.5 268.7 -268.7C310.1 -238.9 351.9 -201.3 374.7 -155.2C397.6 -109.1 401.6 -54.6 405.6 0L0 0Z" fill="#232745"></path><path d="M0 -304.2C36.3 -288.4 72.7 -272.5 106.2 -256.4C139.7 -240.2 170.5 -223.8 201.5 -201.5C232.6 -179.2 263.9 -151 281.1 -116.4C298.2 -81.8 301.2 -40.9 304.2 0L0 0Z" fill="#96446e"></path><path d="M0 -202.8C24.2 -192.2 48.4 -181.7 70.8 -170.9C93.2 -160.2 113.7 -149.2 134.4 -134.4C155 -119.5 175.9 -100.7 187.4 -77.6C198.8 -54.6 200.8 -27.3 202.8 0L0 0Z" fill="#f17c53"></path><path d="M0 -101.4C12.1 -96.1 24.2 -90.8 35.4 -85.5C46.6 -80.1 56.8 -74.6 67.2 -67.2C77.5 -59.7 88 -50.3 93.7 -38.8C99.4 -27.3 100.4 -13.6 101.4 0L0 0Z" fill="#fbae3c"></path></g></svg>