<svg id="visual" viewBox="0 0 600 900" width="600" height="900" xmlns="http://www.w3.org/2000/svg" xmlns:xlink="http://www.w3.org/1999/xlink" version="1.1"><rect x="0" y="0" width="600" height="900" fill="#001220"></rect><defs><linearGradient id="grad1_0" x1="0%" y1="0%" x2="100%" y2="100%"><stop offset="30%" stop-color="#fbae3c" stop-opacity="1"></stop><stop offset="70%" stop-color="#fbae3c" stop-opacity="1"></stop></linearGradient></defs><defs><linearGradient id="grad1_1" x1="0%" y1="0%" x2="100%" y2="100%"><stop offset="30%" stop-color="#fbae3c" stop-opacity="1"></stop><stop offset="70%" stop-color="#96446e" stop-opacity="1"></stop></linearGradient></defs><defs><linearGradient id="grad1_2" x1="0%" y1="0%" x2="100%" y2="100%"><stop offset="30%" stop-color="#001220" stop-opacity="1"></stop><stop offset="70%" stop-color="#96446e" stop-opacity="1"></stop></linearGradient></defs><defs><linearGradient id="grad2_0" x1="0%" y1="0%" x2="100%" y2="100%"><stop offset="30%" stop-color="#fbae3c" stop-opacity="1"></stop><stop offset="70%" stop-color="#fbae3c" stop-opacity="1"></stop></linearGradient></defs><defs><linearGradient id="grad2_1" x1="0%" y1="0%" x2="100%" y2="100%"><stop offset="30%" stop-color="#96446e" stop-opacity="1"></stop><stop offset="70%" stop-color="#fbae3c" stop-opacity="1"></stop></linearGradient></defs><defs><linearGradient id="grad2_2" x1="0%" y1="0%" x2="100%" y2="100%"><stop offset="30%" stop-color="#96446e" stop-opacity="1"></stop><stop offset="70%" stop-color="#001220" stop-opacity="1"></stop></linearGradient></defs><g transform="translate(600, 0)"><path d="M0 486.7C-66.9 471.3 -133.8 455.9 -171.4 413.9C-209 371.9 -217.3 303.2 -266.6 266.6C-315.9 230 -406.2 225.4 -449.7 186.3C-493.2 147.2 -490 73.6 -486.7 0L0 0Z" fill="#3d3056"></path><path d="M0 324.5C-44.6 314.2 -89.2 304 -114.3 275.9C-139.4 247.9 -144.9 202.1 -177.7 177.7C-210.6 153.3 -270.8 150.2 -299.8 124.2C-328.8 98.1 -326.7 49.1 -324.5 0L0 0Z" fill="#e1685e"></path><path d="M0 162.2C-22.3 157.1 -44.6 152 -57.1 138C-69.7 124 -72.4 101.1 -88.9 88.9C-105.3 76.7 -135.4 75.1 -149.9 62.1C-164.4 49.1 -163.3 24.5 -162.2 0L0 0Z" fill="#fbae3c"></path></g><g transform="translate(0, 900)"><path d="M0 -486.7C67.4 -484 134.8 -481.2 186.3 -449.7C237.7 -418.2 273.3 -357.8 307.6 -307.6C341.9 -257.4 375 -217.2 404.7 -167.6C434.3 -118 460.5 -59 486.7 0L0 0Z" fill="#3d3056"></path><path d="M0 -324.5C44.9 -322.7 89.9 -320.8 124.2 -299.8C158.5 -278.8 182.2 -238.6 205.1 -205.1C227.9 -171.6 250 -144.8 269.8 -111.7C289.5 -78.7 307 -39.3 324.5 0L0 0Z" fill="#e1685e"></path><path d="M0 -162.2C22.5 -161.3 44.9 -160.4 62.1 -149.9C79.2 -139.4 91.1 -119.3 102.5 -102.5C114 -85.8 125 -72.4 134.9 -55.9C144.8 -39.3 153.5 -19.7 162.2 0L0 0Z" fill="#fbae3c"></path></g></svg>