<svg id="visual" viewBox="0 0 2000 1000" width="2000" height="1000" xmlns="http://www.w3.org/2000/svg" xmlns:xlink="http://www.w3.org/1999/xlink" version="1.1"><rect x="0" y="0" width="2000" height="1000" fill="#fff"></rect><defs><linearGradient id="grad1_0" x1="50%" y1="0%" x2="100%" y2="100%"><stop offset="10%" stop-color="#423cfa" stop-opacity="1"></stop><stop offset="90%" stop-color="#423cfa" stop-opacity="1"></stop></linearGradient></defs><defs><linearGradient id="grad1_1" x1="50%" y1="0%" x2="100%" y2="100%"><stop offset="10%" stop-color="#423cfa" stop-opacity="1"></stop><stop offset="90%" stop-color="#b69cff" stop-opacity="1"></stop></linearGradient></defs><defs><linearGradient id="grad1_2" x1="50%" y1="0%" x2="100%" y2="100%"><stop offset="10%" stop-color="#ffffff" stop-opacity="1"></stop><stop offset="90%" stop-color="#b69cff" stop-opacity="1"></stop></linearGradient></defs><defs><linearGradient id="grad2_0" x1="0%" y1="0%" x2="50%" y2="100%"><stop offset="10%" stop-color="#423cfa" stop-opacity="1"></stop><stop offset="90%" stop-color="#423cfa" stop-opacity="1"></stop></linearGradient></defs><defs><linearGradient id="grad2_1" x1="0%" y1="0%" x2="50%" y2="100%"><stop offset="10%" stop-color="#b69cff" stop-opacity="1"></stop><stop offset="90%" stop-color="#423cfa" stop-opacity="1"></stop></linearGradient></defs><defs><linearGradient id="grad2_2" x1="0%" y1="0%" x2="50%" y2="100%"><stop offset="10%" stop-color="#b69cff" stop-opacity="1"></stop><stop offset="90%" stop-color="#ffffff" stop-opacity="1"></stop></linearGradient></defs><g transform="translate(2000, 0)"><path d="M0 700C-89.9 626.6 -179.9 553.2 -291 504C-402.1 454.9 -534.5 430 -606.2 350C-677.9 270 -689 135 -700 0L0 0Z" fill="#ddcdff"></path><path d="M0 466.7C-60 417.7 -119.9 368.8 -194 336C-268.1 303.2 -356.3 286.6 -404.1 233.3C-451.9 180 -459.3 90 -466.7 0L0 0Z" fill="#886cfd"></path><path d="M0 233.3C-30 208.9 -60 184.4 -97 168C-134 151.6 -178.2 143.3 -202.1 116.7C-226 90 -229.7 45 -233.3 0L0 0Z" fill="#423cfa"></path></g><g transform="translate(0, 1000)"><path d="M0 -700C106.2 -654.8 212.4 -609.5 321.5 -556.9C430.6 -504.2 542.6 -444.1 606.2 -350C669.8 -255.9 684.9 -128 700 0L0 0Z" fill="#ddcdff"></path><path d="M0 -466.7C70.8 -436.5 141.6 -406.4 214.3 -371.2C287.1 -336.1 361.8 -296 404.1 -233.3C446.5 -170.6 456.6 -85.3 466.7 0L0 0Z" fill="#886cfd"></path><path d="M0 -233.3C35.4 -218.3 70.8 -203.2 107.2 -185.6C143.5 -168.1 180.9 -148 202.1 -116.7C223.3 -85.3 228.3 -42.7 233.3 0L0 0Z" fill="#423cfa"></path></g></svg>