<svg id="visual" viewBox="0 0 2000 1000" width="2000" height="1000" xmlns="http://www.w3.org/2000/svg" xmlns:xlink="http://www.w3.org/1999/xlink" version="1.1"><rect x="0" y="0" width="2000" height="1000" fill="#001220"></rect><defs><linearGradient id="grad1_0" x1="50%" y1="0%" x2="100%" y2="100%"><stop offset="10%" stop-color="#fbae3c" stop-opacity="1"></stop><stop offset="90%" stop-color="#fbae3c" stop-opacity="1"></stop></linearGradient></defs><defs><linearGradient id="grad1_1" x1="50%" y1="0%" x2="100%" y2="100%"><stop offset="10%" stop-color="#fbae3c" stop-opacity="1"></stop><stop offset="90%" stop-color="#96446e" stop-opacity="1"></stop></linearGradient></defs><defs><linearGradient id="grad1_2" x1="50%" y1="0%" x2="100%" y2="100%"><stop offset="10%" stop-color="#001220" stop-opacity="1"></stop><stop offset="90%" stop-color="#96446e" stop-opacity="1"></stop></linearGradient></defs><defs><linearGradient id="grad2_0" x1="0%" y1="0%" x2="50%" y2="100%"><stop offset="10%" stop-color="#fbae3c" stop-opacity="1"></stop><stop offset="90%" stop-color="#fbae3c" stop-opacity="1"></stop></linearGradient></defs><defs><linearGradient id="grad2_1" x1="0%" y1="0%" x2="50%" y2="100%"><stop offset="10%" stop-color="#96446e" stop-opacity="1"></stop><stop offset="90%" stop-color="#fbae3c" stop-opacity="1"></stop></linearGradient></defs><defs><linearGradient id="grad2_2" x1="0%" y1="0%" x2="50%" y2="100%"><stop offset="10%" stop-color="#96446e" stop-opacity="1"></stop><stop offset="90%" stop-color="#001220" stop-opacity="1"></stop></linearGradient></defs><g transform="translate(2000, 0)"><path d="M0 700C-128.8 685.4 -257.6 670.7 -350 606.2C-442.4 541.7 -498.5 427.3 -550.8 318C-603.1 208.7 -651.5 104.3 -700 0L0 0Z" fill="#3d3056"></path><path d="M0 466.7C-85.9 456.9 -171.7 447.1 -233.3 404.1C-295 361.1 -332.3 284.9 -367.2 212C-402 139.1 -434.4 69.6 -466.7 0L0 0Z" fill="#e1685e"></path><path d="M0 233.3C-42.9 228.5 -85.9 223.6 -116.7 202.1C-147.5 180.6 -166.2 142.4 -183.6 106C-201 69.6 -217.2 34.8 -233.3 0L0 0Z" fill="#fbae3c"></path></g><g transform="translate(0, 1000)"><path d="M0 -700C124.9 -683.1 249.7 -666.2 350 -606.2C450.3 -546.2 526 -443.2 580.2 -335C634.5 -226.8 667.2 -113.4 700 0L0 0Z" fill="#3d3056"></path><path d="M0 -466.7C83.2 -455.4 166.5 -444.1 233.3 -404.1C300.2 -364.2 350.7 -295.5 386.8 -223.3C423 -151.2 444.8 -75.6 466.7 0L0 0Z" fill="#e1685e"></path><path d="M0 -233.3C41.6 -227.7 83.2 -222.1 116.7 -202.1C150.1 -182.1 175.3 -147.7 193.4 -111.7C211.5 -75.6 222.4 -37.8 233.3 0L0 0Z" fill="#fbae3c"></path></g></svg>