<svg id="visual" viewBox="0 0 800 400" width="800" height="400" xmlns="http://www.w3.org/2000/svg" xmlns:xlink="http://www.w3.org/1999/xlink" version="1.1"><rect x="0" y="0" width="800" height="400" fill="#040f16"></rect><path d="M0 204L14.8 209.7C29.7 215.3 59.3 226.7 89 227.7C118.7 228.7 148.3 219.3 178 209.8C207.7 200.3 237.3 190.7 267 193C296.7 195.3 326.3 209.7 355.8 212.2C385.3 214.7 414.7 205.3 444.2 199.8C473.7 194.3 503.3 192.7 533 193.5C562.7 194.3 592.3 197.7 622 196.8C651.7 196 681.3 191 711 191.3C740.7 191.7 770.3 197.3 785.2 200.2L800 203L800 401L785.2 401C770.3 401 740.7 401 711 401C681.3 401 651.7 401 622 401C592.3 401 562.7 401 533 401C503.3 401 473.7 401 444.2 401C414.7 401 385.3 401 355.8 401C326.3 401 296.7 401 267 401C237.3 401 207.7 401 178 401C148.3 401 118.7 401 89 401C59.3 401 29.7 401 14.8 401L0 401Z" fill="#ffffff" stroke-linecap="round" stroke-linejoin="miter"></path></svg>