<svg id="visual" viewBox="0 0 650 300" width="650" height="300" xmlns="http://www.w3.org/2000/svg" xmlns:xlink="http://www.w3.org/1999/xlink" version="1.1"><path d="M0 187L15.5 193.7C31 200.3 62 213.7 93 214.8C124 216 155 205 186 205C217 205 248 216 278.8 222.7C309.7 229.3 340.3 231.7 371.2 225.3C402 219 433 204 464 198C495 192 526 195 557 205.7C588 216.3 619 234.7 634.5 243.8L650 253L650 301L634.5 301C619 301 588 301 557 301C526 301 495 301 464 301C433 301 402 301 371.2 301C340.3 301 309.7 301 278.8 301C248 301 217 301 186 301C155 301 124 301 93 301C62 301 31 301 15.5 301L0 301Z" fill="#fff" stroke-linecap="round" stroke-linejoin="miter"></path></svg>